<svg data-v-423bf9ae="" xmlns="http://www.w3.org/2000/svg" viewBox="0 0 205.3456362696273 225" class="iconAboveSlogan"><!----><!----><!----><g data-v-423bf9ae="" id="3ee16d1a-4fdd-41b3-81d1-331443fe08b7" fill="#FFFFFF" transform="matrix(4.608295106398049,0,0,4.608295106398049,-1.2903242253274385,137.087151855536)"><path d="M5.00 10.50L5.00 1.61L8.39 1.61L8.39 0.42L0.28 0.42L0.28 1.61L3.67 1.61L3.67 10.50ZM7.14 13.30C7.41 13.40 7.70 13.44 7.94 13.44C9.13 13.44 9.67 12.56 10.15 11.28L13.15 3.22L11.91 3.22L9.84 8.89L7.73 3.22L6.43 3.22L9.25 10.43L8.93 11.31C8.62 12.04 8.26 12.33 7.71 12.33C7.50 12.33 7.24 12.29 7 12.21L7.14 13.30ZM17.77 7.46L17.77 6.26L13.99 6.26L13.99 7.46ZM20.92 10.50L20.92 2.13L23.91 10.50L25.10 10.50L28.10 2.13L28.10 10.50L29.43 10.50L29.43 0.42L27.59 0.42L24.53 8.78L21.53 0.42L19.59 0.42L19.59 10.50ZM35.97 9.60C36.01 9.95 36.05 10.30 36.26 10.50L37.53 10.50C37.28 10.23 37.14 9.76 37.14 9.02L37.14 5.82C37.14 3.99 36.27 3.01 34.33 3.01C32.93 3.01 31.63 3.53 31.26 5.21L32.45 5.47C32.70 4.52 33.29 4.02 34.20 4.02C35.17 4.02 35.88 4.44 35.88 5.57L35.88 5.85C35.52 6.02 34.66 6.16 33.89 6.23C32.27 6.38 31.04 7.01 31.04 8.58C31.04 10.07 32.17 10.71 33.52 10.71C34.38 10.71 35.24 10.42 35.97 9.60ZM35.88 8.54C35.50 9.03 34.65 9.70 33.71 9.70C33.04 9.70 32.35 9.45 32.35 8.53C32.35 7.53 33.26 7.36 34.03 7.24C34.75 7.13 35.56 6.97 35.88 6.82ZM39.62 10.50L41.48 7.70L43.36 10.50L44.84 10.50L42.18 6.73L44.65 3.22L43.22 3.22L41.52 5.85L39.84 3.22L38.33 3.22L40.75 6.78L38.16 10.50Z"></path></g><!----><g data-v-423bf9ae="" id="85c46c59-72e1-46b2-93e7-1828936f3606" transform="matrix(1.1833222283257379,0,0,1.1833222283257379,17.588465721500853,-21.44879197521513)" stroke="none" fill="#4BBA5B"><path d="M118.233 70.544c-.393-12.338-5.59-23.482-13.791-31.611 1.332-.715 2.625-1.559 3.824-2.596 4.666-4.043 7.033-9.959 7.033-17.586h-3c0 6.699-2.008 11.844-5.967 15.291-1.377-10.74-9.73-11.393-9.822-11.398l-.184 2.994c.07.004 6.695.529 7.172 10.396-.463.264-.934.506-1.412.729-7.729-6.68-17.658-10.873-28.545-11.314V18.84h-3v6.588c-11.071.254-21.197 4.379-29.079 11.078a19.542 19.542 0 0 1-.878-.471c.468-9.756 6.899-10.375 7.184-10.398l-.104-1.496-.092-1.496c-.092.006-8.445.658-9.821 11.398-3.959-3.447-5.967-8.592-5.967-15.291h-3c0 7.627 2.366 13.543 7.033 17.586a20.603 20.603 0 0 0 3.292 2.307c-8.373 8.154-13.695 19.414-14.093 31.9h-6.181v3h6.181c.785 24.668 20.804 44.551 45.524 45.119v6.586h3v-6.607c24.336-.99 43.914-20.707 44.691-45.098h7.014v-3h-7.012zM70.542 28.427V36.9h3v-8.451c9.555.414 18.316 3.918 25.322 9.529-6.533 1.936-13.051 1.055-13.141 1.043l-1-.143-7.742 13.301c-1.676-.662-3.369-1.027-4.983-1.027-1.592 0-3.259.357-4.91 1L59.36 38.878l-1 .143c-.093.012-7.011.943-13.736-1.229a43.408 43.408 0 0 1 25.918-9.365zm15.705 37.836c.916 2.551 1.383 5.332 1.383 8.264 0 2.449-4.285 7.365-6.986 9.887l-.408.383-.059.557c-.016.137-1.635 13.719-8.179 13.719-7.006 0-8.16-13.539-8.171-13.676l-.046-.582-.426-.396c-2.9-2.709-6.985-7.566-6.985-9.891 0-2.932.465-5.713 1.381-8.266l.849-2.365-2.485.375c-1.509.23-3.298-.033-5.208-.764-3.58-1.371-6.37-5.957-7.596-8.285 1.765-.654 4.899-1.633 7.876-1.633 1.269 0 2.383.18 3.31.533 2.693 1.031 4.564 2.584 5.27 4.369l.854 2.166 1.619-1.674c2.886-2.98 6.625-4.832 9.759-4.832 3.136 0 6.876 1.852 9.763 4.834l1.619 1.672.854-2.166c.705-1.785 2.576-3.336 5.27-4.367.928-.355 2.041-.535 3.311-.535 2.979 0 6.119.98 7.881 1.637-1.402 2.668-4.252 6.998-7.602 8.281-1.91.73-3.695.996-5.211.764l-2.486-.375.849 2.366zm28.986 7.281c-.773 22.736-19.01 41.111-41.691 42.098v-8.453h-3v8.475c-23.066-.566-41.742-19.105-42.524-42.119h8.878v-3h-8.878c.409-12.031 5.705-22.842 13.971-30.502 6.413 2.584 13.232 2.295 15.78 2.063l6.62 11.375a20.494 20.494 0 0 0-2.865 2.059c-1.291-1.754-3.34-3.215-5.955-4.217-1.271-.486-2.745-.732-4.382-.732-5.12 0-10.34 2.385-10.56 2.486l-1.328.613.58 1.342c.157.365 3.929 8.969 9.954 11.277 1.542.59 3.033.934 4.447 1.021-.604 2.281-.91 4.693-.91 7.197 0 4.092 5.783 10.002 7.523 11.688.331 2.973 2.275 15.857 11.104 15.857 8.448 0 10.692-12.926 11.091-15.844 1.723-1.666 7.541-7.598 7.541-11.701 0-2.504-.307-4.916-.912-7.197 1.414-.088 2.906-.432 4.447-1.021 6.025-2.309 9.797-10.912 9.953-11.277l.58-1.342-1.328-.613c-.219-.102-5.438-2.486-10.557-2.486-1.637 0-3.111.246-4.383.732-2.615 1.002-4.664 2.463-5.955 4.217a20.594 20.594 0 0 0-2.801-2.021l6.641-11.412c2.471.225 8.945.492 15.18-1.842 8.131 7.646 13.332 18.363 13.738 30.281h-8.045v3h8.046z"></path><path d="M70.542 71.214h3v3.818h-3z"></path></g><!----><g data-v-423bf9ae="" id="3024353c-54e2-4815-b422-7f7ca3628f90" fill="#FFFFFF" transform="matrix(1.3277801526726982,0,0,1.3277801526726982,25.72005105970385,233.05304721940166)"><path d="M0.84 11.87L0.84 9.69L0.84 9.69Q0.84 7.78 1.75 6.73L1.75 6.73L1.75 6.73Q2.66 5.68 4.28 5.68L4.28 5.68L4.28 5.68Q5.91 5.68 6.82 6.73L6.82 6.73L6.82 6.73Q7.73 7.78 7.73 9.69L7.73 9.69L7.73 11.87L7.73 11.87Q7.73 13.83 6.82 14.85L6.82 14.85L6.82 14.85Q5.91 15.88 4.28 15.88L4.28 15.88L4.28 15.88Q2.66 15.88 1.75 14.85L1.75 14.85L1.75 14.85Q0.84 13.83 0.84 11.87L0.84 11.87ZM4.28 14.78L4.28 14.78L4.28 14.78Q5.42 14.78 5.99 14.01L5.99 14.01L5.99 14.01Q6.55 13.23 6.55 11.79L6.55 11.79L6.55 9.77L6.55 9.77Q6.55 8.43 5.99 7.60L5.99 7.60L5.99 7.60Q5.42 6.78 4.28 6.78L4.28 6.78L4.28 6.78Q3.15 6.78 2.58 7.60L2.58 7.60L2.58 7.60Q2.02 8.43 2.02 9.77L2.02 9.77L2.02 11.79L2.02 11.79Q2.02 13.23 2.58 14.01L2.58 14.01L2.58 14.01Q3.15 14.78 4.28 14.78ZM16.49 5.88L17.67 5.88L17.67 12.38L17.67 12.38Q17.67 13.57 18.22 14.17L18.22 14.17L18.22 14.17Q18.77 14.78 19.85 14.78L19.85 14.78L19.85 14.78Q20.93 14.78 21.48 14.17L21.48 14.17L21.48 14.17Q22.04 13.57 22.04 12.38L22.04 12.38L22.04 5.88L23.21 5.88L23.21 12.38L23.21 12.38Q23.21 14.08 22.32 14.98L22.32 14.98L22.32 14.98Q21.42 15.88 19.85 15.88L19.85 15.88L19.85 15.88Q18.28 15.88 17.39 14.98L17.39 14.98L17.39 14.98Q16.49 14.08 16.49 12.38L16.49 12.38L16.49 5.88ZM31.98 6.97L31.98 5.88L38.86 5.88L38.86 6.97L36.01 6.97L36.01 15.68L34.83 15.68L34.83 6.97L31.98 6.97ZM47.73 6.97L47.73 5.88L50.95 5.88L50.95 5.88Q52.77 5.88 53.61 6.75L53.61 6.75L53.61 6.75Q54.45 7.62 54.45 9.52L54.45 9.52L54.45 12.04L54.45 12.04Q54.45 13.94 53.61 14.81L53.61 14.81L53.61 14.81Q52.77 15.68 50.95 15.68L50.95 15.68L47.73 15.68L47.73 14.57L48.57 14.57L48.57 6.97L47.73 6.97ZM49.74 14.59L50.78 14.59L50.78 14.59Q51.42 14.59 51.89 14.46L51.89 14.46L51.89 14.46Q52.36 14.34 52.67 14.04L52.67 14.04L52.67 14.04Q52.98 13.73 53.12 13.23L53.12 13.23L53.12 13.23Q53.27 12.73 53.27 11.96L53.27 11.96L53.27 9.60L53.27 9.60Q53.27 8.83 53.12 8.33L53.12 8.33L53.12 8.33Q52.98 7.83 52.67 7.53L52.67 7.53L52.67 7.53Q52.36 7.22 51.89 7.10L51.89 7.10L51.89 7.10Q51.42 6.97 50.78 6.97L50.78 6.97L49.74 6.97L49.74 14.59ZM63.11 11.87L63.11 9.69L63.11 9.69Q63.11 7.78 64.02 6.73L64.02 6.73L64.02 6.73Q64.93 5.68 66.56 5.68L66.56 5.68L66.56 5.68Q68.18 5.68 69.09 6.73L69.09 6.73L69.09 6.73Q70 7.78 70 9.69L70 9.69L70 11.87L70 11.87Q70 13.83 69.09 14.85L69.09 14.85L69.09 14.85Q68.18 15.88 66.56 15.88L66.56 15.88L66.56 15.88Q64.93 15.88 64.02 14.85L64.02 14.85L64.02 14.85Q63.11 13.83 63.11 11.87L63.11 11.87ZM66.56 14.78L66.56 14.78L66.56 14.78Q67.69 14.78 68.26 14.01L68.26 14.01L68.26 14.01Q68.82 13.23 68.82 11.79L68.82 11.79L68.82 9.77L68.82 9.77Q68.82 8.43 68.26 7.60L68.26 7.60L68.26 7.60Q67.69 6.78 66.56 6.78L66.56 6.78L66.56 6.78Q65.42 6.78 64.86 7.60L64.86 7.60L64.86 7.60Q64.29 8.43 64.29 9.77L64.29 9.77L64.29 11.79L64.29 11.79Q64.29 13.23 64.86 14.01L64.86 14.01L64.86 14.01Q65.42 14.78 66.56 14.78ZM78.68 11.87L78.68 9.69L78.68 9.69Q78.68 7.78 79.59 6.73L79.59 6.73L79.59 6.73Q80.50 5.68 82.12 5.68L82.12 5.68L82.12 5.68Q83.75 5.68 84.66 6.73L84.66 6.73L84.66 6.73Q85.57 7.78 85.57 9.69L85.57 9.69L85.57 11.87L85.57 11.87Q85.57 13.83 84.66 14.85L84.66 14.85L84.66 14.85Q83.75 15.88 82.12 15.88L82.12 15.88L82.12 15.88Q80.50 15.88 79.59 14.85L79.59 14.85L79.59 14.85Q78.68 13.83 78.68 11.87L78.68 11.87ZM82.12 14.78L82.12 14.78L82.12 14.78Q83.26 14.78 83.83 14.01L83.83 14.01L83.83 14.01Q84.39 13.23 84.39 11.79L84.39 11.79L84.39 9.77L84.39 9.77Q84.39 8.43 83.83 7.60L83.83 7.60L83.83 7.60Q83.26 6.78 82.12 6.78L82.12 6.78L82.12 6.78Q80.99 6.78 80.42 7.60L80.42 7.60L80.42 7.60Q79.86 8.43 79.86 9.77L79.86 9.77L79.86 11.79L79.86 11.79Q79.86 13.23 80.42 14.01L80.42 14.01L80.42 14.01Q80.99 14.78 82.12 14.78ZM100.76 12.15L100.76 15.68L99.58 15.68L99.58 12.40L99.58 12.40Q99.58 12.04 99.41 11.84L99.41 11.84L99.41 11.84Q99.25 11.65 98.83 11.65L98.83 11.65L95.77 11.65L95.77 15.68L94.60 15.68L94.60 5.88L98.10 5.88L98.10 5.88Q98.85 5.88 99.41 6.10L99.41 6.10L99.41 6.10Q99.97 6.31 100.34 6.68L100.34 6.68L100.34 6.68Q100.72 7.04 100.91 7.53L100.91 7.53L100.91 7.53Q101.09 8.01 101.09 8.54L101.09 8.54L101.09 8.96L101.09 8.96Q101.09 9.51 100.79 10.05L100.79 10.05L100.79 10.05Q100.49 10.60 99.86 10.89L99.86 10.89L99.86 11.06L99.86 11.06Q100.28 11.13 100.52 11.40L100.52 11.40L100.52 11.40Q100.76 11.66 100.76 12.15L100.76 12.15ZM95.77 6.97L95.77 10.56L97.96 10.56L97.96 10.56Q98.95 10.56 99.44 10.13L99.44 10.13L99.44 10.13Q99.92 9.70 99.92 8.88L99.92 8.88L99.92 8.62L99.92 8.62Q99.92 7.88 99.44 7.43L99.44 7.43L99.44 7.43Q98.95 6.97 97.96 6.97L97.96 6.97L95.77 6.97ZM115.57 9.21L115.57 8.71L115.57 8.71Q115.57 8.23 115.38 7.87L115.38 7.87L115.38 7.87Q115.19 7.50 114.87 7.27L114.87 7.27L114.87 7.27Q114.55 7.03 114.13 6.90L114.13 6.90L114.13 6.90Q113.71 6.78 113.25 6.78L113.25 6.78L113.25 6.78Q112.84 6.78 112.48 6.88L112.48 6.88L112.48 6.88Q112.11 6.99 111.83 7.18L111.83 7.18L111.83 7.18Q111.54 7.38 111.37 7.66L111.37 7.66L111.37 7.66Q111.20 7.95 111.20 8.33L111.20 8.33L111.20 8.41L111.20 8.41Q111.20 8.82 111.37 9.11L111.37 9.11L111.37 9.11Q111.54 9.39 111.87 9.60L111.87 9.60L111.87 9.60Q112.20 9.80 112.69 9.93L112.69 9.93L112.69 9.93Q113.18 10.07 113.83 10.16L113.83 10.16L113.83 10.16Q115.37 10.40 116.10 11.07L116.10 11.07L116.10 11.07Q116.83 11.73 116.83 12.85L116.83 12.85L116.83 13.02L116.83 13.02Q116.83 13.65 116.61 14.17L116.61 14.17L116.61 14.17Q116.40 14.70 115.97 15.08L115.97 15.08L115.97 15.08Q115.54 15.46 114.91 15.67L114.91 15.67L114.91 15.67Q114.28 15.88 113.46 15.88L113.46 15.88L113.46 15.88Q112.52 15.88 111.80 15.60L111.80 15.60L111.80 15.60Q111.08 15.33 110.59 14.85L110.59 14.85L110.59 14.85Q110.11 14.36 109.86 13.71L109.86 13.71L109.86 13.71Q109.61 13.06 109.61 12.29L109.61 12.29L109.61 11.87L110.78 11.87L110.78 12.21L110.78 12.21Q110.78 13.50 111.49 14.14L111.49 14.14L111.49 14.14Q112.20 14.78 113.46 14.78L113.46 14.78L113.46 14.78Q114.55 14.78 115.10 14.30L115.10 14.30L115.10 14.30Q115.65 13.82 115.65 13.02L115.65 13.02L115.65 12.94L115.65 12.94Q115.65 12.17 115.09 11.76L115.09 11.76L115.09 11.76Q114.52 11.35 113.25 11.17L113.25 11.17L113.25 11.17Q112.50 11.07 111.91 10.87L111.91 10.87L111.91 10.87Q111.31 10.67 110.89 10.34L110.89 10.34L110.89 10.34Q110.47 10.01 110.25 9.55L110.25 9.55L110.25 9.55Q110.03 9.09 110.03 8.46L110.03 8.46L110.03 8.29L110.03 8.29Q110.03 7.71 110.26 7.24L110.26 7.24L110.26 7.24Q110.50 6.76 110.93 6.41L110.93 6.41L110.93 6.41Q111.36 6.06 111.95 5.87L111.95 5.87L111.95 5.87Q112.55 5.68 113.26 5.68L113.26 5.68L113.26 5.68Q114.09 5.68 114.74 5.92L114.74 5.92L114.74 5.92Q115.39 6.16 115.84 6.56L115.84 6.56L115.84 6.56Q116.28 6.96 116.52 7.50L116.52 7.50L116.52 7.50Q116.75 8.04 116.75 8.62L116.75 8.62L116.75 9.21L115.57 9.21Z"></path></g></svg>