<svg data-v-423bf9ae="" xmlns="http://www.w3.org/2000/svg" viewBox="0 0 205.3456362696273 60" class="font"><!----><!----><!----><g data-v-423bf9ae="" id="cdbf0427-90c9-407d-bfdb-6ab082e14b5e" fill="white" transform="matrix(4.608295106398049,0,0,4.608295106398049,-1.2903242253274385,-1.9354845580382047)"><path d="M5.00 10.50L5.00 1.61L8.39 1.61L8.39 0.42L0.28 0.42L0.28 1.61L3.67 1.61L3.67 10.50ZM7.14 13.30C7.41 13.40 7.70 13.44 7.94 13.44C9.13 13.44 9.67 12.56 10.15 11.28L13.15 3.22L11.91 3.22L9.84 8.89L7.73 3.22L6.43 3.22L9.25 10.43L8.93 11.31C8.62 12.04 8.26 12.33 7.71 12.33C7.50 12.33 7.24 12.29 7 12.21L7.14 13.30ZM17.77 7.46L17.77 6.26L13.99 6.26L13.99 7.46ZM20.92 10.50L20.92 2.13L23.91 10.50L25.10 10.50L28.10 2.13L28.10 10.50L29.43 10.50L29.43 0.42L27.59 0.42L24.53 8.78L21.53 0.42L19.59 0.42L19.59 10.50ZM35.97 9.60C36.01 9.95 36.05 10.30 36.26 10.50L37.53 10.50C37.28 10.23 37.14 9.76 37.14 9.02L37.14 5.82C37.14 3.99 36.27 3.01 34.33 3.01C32.93 3.01 31.63 3.53 31.26 5.21L32.45 5.47C32.70 4.52 33.29 4.02 34.20 4.02C35.17 4.02 35.88 4.44 35.88 5.57L35.88 5.85C35.52 6.02 34.66 6.16 33.89 6.23C32.27 6.38 31.04 7.01 31.04 8.58C31.04 10.07 32.17 10.71 33.52 10.71C34.38 10.71 35.24 10.42 35.97 9.60ZM35.88 8.54C35.50 9.03 34.65 9.70 33.71 9.70C33.04 9.70 32.35 9.45 32.35 8.53C32.35 7.53 33.26 7.36 34.03 7.24C34.75 7.13 35.56 6.97 35.88 6.82ZM39.62 10.50L41.48 7.70L43.36 10.50L44.84 10.50L42.18 6.73L44.65 3.22L43.22 3.22L41.52 5.85L39.84 3.22L38.33 3.22L40.75 6.78L38.16 10.50Z"></path></g><!----><!----></svg>